<?xml version="1.0" standalone="no"?>
<svg version="1.1" id="Layer_1" xmlns="http://www.w3.org/2000/svg" xmlns:xlink="http://www.w3.org/1999/xlink" x="0px" y="0px" width="595.279px" height="595.279px" viewBox="0 0.001 595.279 595.279" enable-background="new 0 0.001 595.279 595.279" xml:space="preserve">
<path id="color_x5F_5" fill="#ffffff" d="M71.128,422.684h70.036v21.605H71.128V422.684z M406.726,270.136
	c-0.059-0.564-0.095-1.116-0.118-1.659c0.806-0.815,1.362-1.889,1.512-3.114l1.002-8.2l0.862,2.957l1.716-11.371l1.167-7.741
	c1.15,0.27,2.317,0.51,3.52,0.69c11.682,1.763,22.611-1.193,29.526-7.088l1.912,0.756l0.013-0.015
	c2.819,3.029,6.422,5.66,10.621,7.68l-1.875,12.27l-1.768,11.573l1.691-2.565l-1.228,10.043c-0.108,0.884,0.009,1.742,0.301,2.522
	c-0.614,1.52-1.378,2.984-2.272,4.373c-0.042,0.065-0.08,0.133-0.123,0.199l-0.001,0.001c-0.405,0.618-0.838,1.22-1.292,1.805
	c-0.021,0.026-0.041,0.052-0.062,0.078c-0.443,0.566-0.909,1.115-1.396,1.646c-0.039,0.042-0.079,0.084-0.118,0.126
	c-0.481,0.519-0.981,1.021-1.502,1.504c-0.042,0.039-0.087,0.077-0.13,0.116c-0.532,0.487-1.081,0.958-1.65,1.403
	c-0.775,0.602-1.581,1.166-2.405,1.652c-0.657,0.427-1.317,0.802-2.008,1.15l-0.067,9.14c0,0.002-0.002,0.002-0.004,0.004v-0.005
	l0.068-9.138c-0.035,0.018-0.072,0.032-0.107,0.05l-0.011,9.12l-0.01,8.024l-0.016,2.181l-0.021,2.856l-0.037,4.92
	c-3.255,3.53-7.695,6.001-12.813,6.742c-2.201,0.317-4.367,0.272-6.454-0.059c-0.029-0.074-0.046-0.149-0.046-0.227
	c0-0.634,1.037-1.175,2.502-1.868c1.819-0.861,4.084-1.934,4.084-4.368c0-0.764-0.619-1.383-1.383-1.383s-1.383,0.619-1.383,1.383
	c0,0.635-1.036,1.175-2.502,1.868c-1.714,0.812-3.799,1.825-4.037,3.974c-1.548-0.461-3.035-1.08-4.43-1.86
	c-2.193-1.23-4.154-2.843-5.805-4.748c-0.174-0.2-0.336-0.41-0.502-0.616c-0.737-0.651-1.445-1.338-2.092-2.084l0.047-0.931
	c-0.186-0.331-0.367-0.664-0.534-1.007l0.631-2.136l0.07-0.238l1.985-6.728l3.047-7.216l3.433-8.129
	c-0.543-0.43-1.068-0.873-1.56-1.339c0,0,0-0.002-0.002-0.002c-0.159-0.153-0.299-0.32-0.453-0.477
	c-1.699-1.175-2.995-2.661-3.739-4.336c-0.224-0.502-0.402-1.021-0.521-1.555c-1.245-2.344-2.139-4.793-2.672-7.194
	C406.665,272.928,406.364,271.94,406.726,270.136z M443.044,261.5c1.79-3.231,5.224-3.378,7.13-0.165
	c0.744,1.252,2.855,0.347,2.101-0.925c-1.235-2.079-3.111-3.88-5.69-3.827c-2.634,0.058-4.46,1.875-5.666,4.061
	C440.201,261.938,442.338,262.774,443.044,261.5z M417.381,256.872c2.497-2.783,5.836-1.975,6.963,1.546
	c0.444,1.388,2.707,0.979,2.253-0.431c-0.759-2.374-2.196-4.515-4.771-5.079c-2.519-0.556-4.711,0.85-6.324,2.65
	C414.513,256.658,416.408,257.955,417.381,256.872z M458.155,399.305l-4.45,12.429c1.778-4.494,3.204-8.373,4.533-12.174
	C458.205,399.443,458.176,399.347,458.155,399.305z M444.385,330.774c0-0.635-1.037-1.175-2.502-1.867
	c-0.243-0.115-0.493-0.234-0.745-0.359c-0.455,1.684-0.931,3.442-1.428,5.276c0.686-0.471,1.462-0.844,2.173-1.181
	C443.348,331.95,444.385,331.41,444.385,330.774z M478.537,340.227c-0.211-2.012-0.68-3.93-1.361-5.729
	c-3.729-12.014-13.748-21.66-26.951-24.287l-4.034-0.802c-0.308,1.387-1.217,4.867-2.545,9.828c0.464-0.309,0.74-0.61,0.74-0.936
	c0-0.764,0.619-1.383,1.383-1.383s1.383,0.619,1.383,1.383c0,2.435-2.265,3.507-4.084,4.368c-0.137,0.064-0.265,0.127-0.394,0.188
	c-0.255,0.945-0.521,1.935-0.797,2.954c0.349,0.188,0.746,0.384,1.19,0.594c1.819,0.861,4.084,1.934,4.084,4.367
	c0,2.435-2.265,3.507-4.084,4.369c-1.465,0.693-2.502,1.233-2.502,1.869s1.037,1.176,2.502,1.869
	c1.819,0.862,4.084,1.935,4.084,4.37c0,0.764-0.619,1.383-1.383,1.383s-1.383-0.619-1.383-1.383c0-0.636-1.037-1.176-2.502-1.87
	c-1.275-0.604-2.755-1.323-3.534-2.531c-0.547,2.021-1.11,4.102-1.689,6.241c-0.258,0.953-0.52,1.923-0.782,2.905h17.735
	c0.037,0.502,0.062,1.007,0.062,1.518v10.992c0,6.375-2.919,12.066-7.492,15.817c4.554,3.376,10.151,5.392,16.151,5.392
	c0.642,0,1.276-0.031,1.908-0.076c-2.315,6.93-4.054,12.341-6.004,17.921c0.372,1.333,1.486,7.134,2.408,8.937
	c-1.891,0.668-6.389,3.02-6.941,3.237c-0.654,1.653-33.045,15.289-55.098,24.412c0.022-0.335,0.041-0.672,0.041-1.013
	c0-4.83-2.328-9.169-6.029-12.219c-1.506-1.241-3.235-2.269-5.139-3.023c-2.35-0.932-4.946-1.461-7.688-1.461
	c-10.414,0-18.855,7.479-18.855,16.703c0,3.262,1.072,6.296,2.896,8.867h15.648c-0.629,0.256-0.977,0.397-0.977,0.397h0.001
	l61.396,0.082h37.161c0.366-0.006,0.768-0.077,1.186-0.19c2.607-0.704,5.979-3.207,7.009-4.143
	C496.584,437.369,479.804,352.373,478.537,340.227z M370.356,369.483c-4.299,0.422-9.113,0.753-14.14,1.014
	c-7.373,0.381-15.2,0.608-22.554,0.742c-15.268,0.276-28.469,0.147-31.163,0.147c-2.162,0-3.344-0.603-3.95-1.659v-1.51v-3.394
	v-3.817v-16.831c9.255-7.061,24.225-15.91,38.602-23.726c17.61-9.571,34.333-17.59,38.579-18.859
	c1.313-0.393,2.636-0.632,3.95-0.732c0.012-0.004,0.024-0.006,0.036-0.01c1.245-0.409,2.521-0.709,3.813-0.888
	c0.491-0.071,0.986-0.123,1.481-0.159c0.047-0.004,0.094-0.007,0.14-0.01c0.457-0.031,0.914-0.045,1.373-0.047
	c0.062,0,0.123-0.002,0.186-0.002c0.484,0.003,0.969,0.021,1.453,0.056c0.021,0.001,0.041,0.002,0.061,0.003
	c0.517,0.039,1.033,0.095,1.546,0.169c3.62-0.43,7.36-0.319,11.131,0.431c-0.011,0.109-0.36,1.51-0.98,3.909
	c-0.43,1.671-0.99,3.83-1.65,6.4c-0.055,0.211-0.115,0.444-0.172,0.66c0.056,0.114,0.118,0.225,0.172,0.34
	c-1.55,5.95-3.659,14.1-6.079,23.34c-0.102,0.073-0.212,0.137-0.315,0.209c-0.914,3.5-1.857,7.151-2.835,10.892
	c-1.942,2.87-4.425,5.35-7.272,7.326c5.536-1.942,11.337-3.107,14.68-3.107c2.932,0,5.653,0.896,7.909,2.426
	c1.132,0.768,2.145,1.696,3.009,2.752c1.992,2.432,3.189,5.541,3.189,8.93c0,2.042-0.443,3.978-1.224,5.73
	c-0.562,1.26-1.301,2.42-2.188,3.453c-2.587,3.01-6.415,4.924-10.695,4.924C390.419,378.585,376.397,374.802,370.356,369.483z
	 M361.167,344.338c-3.976,2.145-7.714,4.105-11.254,5.913c3.253,0.756,6.501,1.545,9.657,2.355c0.001,0,0.003,0.001,0.004,0.001
	c0.373-1.957,0.742-3.876,1.109-5.772C360.844,346,361.007,345.158,361.167,344.338z"></path>
<path id="color_x5F_2" fill="#8be3e1" d="M136.702,406.648c0.77-0.794-0.443-2.01-1.215-1.213
	c-3.507,3.612-7.375,7.032-11.352,10.123c-1.972,1.532-4.038,2.981-5.773,4.745c0.654-2.702,1.172-5.43,1.451-8.192
	c3.787-4.545,8.252-9.03,11.837-10.092c7.818-2.315,14.504,3.621,9.586,9.092c-4.783,5.316-9.501,7.636-15.057,12.049h-7.674
	c1.513-1.556,3.042-3.093,4.582-4.62c1.01-0.769,2.03-1.53,2.992-2.36C129.69,413.071,133.378,410.072,136.702,406.648z
	 M85.574,405.466c3.634,2.537,6.628,5.774,9.932,8.7c3.029,2.682,6.065,5.323,8.687,8.39c-0.792-3.343-0.97-6.722-1.318-10.156
	c-3.787-4.547-8.913-9.031-12.498-10.093c-7.818-2.314-14.505,3.621-9.586,9.09c4.676,5.199,9.294,7.539,14.688,11.764h6.984
	c-2.248-2.551-4.805-4.808-7.341-7.082c-3.423-3.071-6.636-6.493-10.415-9.13C83.806,406.319,84.663,404.831,85.574,405.466z
	 M84.011,308.937c1.365,0,2.682-0.2,3.938-0.546l18.47,80.128c-2.197,0.43-3.865,2.16-3.948,5.286
	c-0.193,7.354,1.749,12.355,2.72,19.708c0.643,4.861,0.775,8.041,0.791,9.646h4.544c0.612-4.349,0.484-8.757,0.225-13.148
	c-0.04-0.682-0.085-1.366-0.134-2.053c-0.197-2.31-0.463-4.613-0.801-6.907c-0.379-2.167-0.902-4.302-1.683-6.363
	c-0.01-0.025-0.004-0.046-0.011-0.071l1.667-0.384c1.9,5.027,2.305,10.462,2.678,15.778c0.309,4.373,0.389,8.801-0.201,13.148h0.525
	l2.892-0.526c0,0,4.081-21.769,0-28.828c-1.318-2.282-3.145-3.846-5.02-4.684l-18.98-82.339c4.313-2.609,7.211-7.331,7.211-12.729
	c0-4.374-1.908-8.3-4.921-11.025l66.866-25.207c0.038,0.087,0.071,0.175,0.11,0.262l6.854,15.19l45.395-20.486l-5.671-12.566
	l0.313-0.118l-1.411-3.743l-0.59,0.222c-4.224-8.323-12.811-13.649-22.207-13.649c-3.539,0-6.98,0.744-10.229,2.21
	c-6.063,2.736-10.697,7.669-13.049,13.891c-1.841,4.869-2.104,10.069-0.824,15.006l-69.752,26.295
	c-1.775-0.749-3.724-1.164-5.768-1.164c-8.207,0-14.884,6.677-14.884,14.883C69.128,302.26,75.804,308.937,84.011,308.937z
	 M398.745,402.744l-11.265,17.147c1.903,0.755,3.633,1.782,5.139,3.023l11.103-16.901c0.903-1.374,0.521-3.221-0.854-4.123
	C401.494,400.987,399.647,401.37,398.745,402.744z M546.252,444.29v8.89H69.753v-8.89l263.91,0.163v-0.176h7.411v-12.691h-7.411
	v-60.347c7.354-0.134,15.181-0.361,22.554-0.742c-0.169,0.915-0.339,1.822-0.507,2.74c-0.082,0.444-0.163,0.888-0.245,1.333
	c-1.097,5.992-2.182,11.996-3.225,17.832c-2.173,12.154-4.269,24.164-5.924,33.754c1.656-9.591,3.751-21.601,5.924-33.754
	c-3.872,21.656-7.178,44.431-8.474,52.056l34.74-0.06l61.396,0.082h37.161c0.366-0.006,0.768-0.077,1.186-0.19
	c2.607-0.704,5.979-3.207,7.009-4.143c11.326-2.778-5.453-87.774-6.721-99.92c-0.211-2.012-0.68-3.93-1.361-5.729
	c-3.729-12.014-13.748-21.66-26.951-24.287l-4.034-0.802c0.05-0.228,0.089-0.416,0.106-0.528l-3.806-0.757l0.01-8.024l0.011-9.12
	c0.035-0.018,0.072-0.032,0.107-0.05l-0.068,9.138v0.005c0.002-0.002,0.004-0.002,0.004-0.004l0.067-9.14
	c0.69-0.349,1.351-0.724,2.008-1.15c0.824-0.486,1.63-1.051,2.405-1.652c0.569-0.445,1.118-0.916,1.65-1.403
	c0.043-0.039,0.088-0.077,0.13-0.116c0.521-0.482,1.021-0.985,1.502-1.504c0.039-0.042,0.079-0.084,0.118-0.126
	c0.486-0.531,0.952-1.08,1.396-1.646c0.021-0.026,0.04-0.052,0.062-0.078c0.454-0.585,0.887-1.187,1.292-1.805l0.001-0.001
	c0.043-0.065,0.081-0.133,0.123-0.199c1.692-0.38,20.648,0.792,20.687,0.199h8.137c27.622,0,50.015,27.58,50.015,61.601V444.29
	H546.252z M343.18,444.459c0.389-2.289,1.12-6.592,2.086-12.216C344.302,437.863,343.569,442.166,343.18,444.459z M446.584,256.583
	c-2.634,0.058-4.46,1.875-5.666,4.061c-0.717,1.294,1.42,2.131,2.126,0.856c1.79-3.231,5.224-3.378,7.13-0.165
	c0.744,1.252,2.855,0.347,2.101-0.925C451.039,258.33,449.163,256.53,446.584,256.583z M421.826,252.908
	c-2.519-0.556-4.711,0.85-6.324,2.65c-0.988,1.1,0.906,2.397,1.879,1.314c2.497-2.783,5.836-1.975,6.963,1.546
	c0.444,1.388,2.707,0.979,2.253-0.431C425.838,255.613,424.4,253.472,421.826,252.908z M379.68,300.858
	c0.012-0.004,0.024-0.006,0.036-0.01c1.719-0.568,3.498-0.919,5.295-1.047c0.047-0.004,0.094-0.007,0.14-0.01
	c0.457-0.03,0.914-0.046,1.373-0.047c0.062,0,0.123-0.002,0.186-0.002c0.484,0.003,0.969,0.021,1.453,0.056
	c0.021,0.001,0.04,0.002,0.061,0.003c0.518,0.039,1.033,0.091,1.548,0.167c3.617-0.433,7.361-0.318,11.129,0.431
	c-0.014,0.113,8.857,3.397,8.857,3.397l3.047-7.216l3.433-8.129c-0.543-0.43-1.068-0.873-1.56-1.339c0,0,0-0.002-0.002-0.002
	c-0.159-0.153-0.299-0.32-0.453-0.477c-1.699-1.175-2.995-2.661-3.739-4.336c-8.386-0.5-20.302-0.851-20.302-0.851h-6.504
	c-21.143,0-39.208,16.167-46.526,39.003c17.61-9.571,34.333-17.59,38.579-18.859C377.043,301.198,378.366,300.959,379.68,300.858z
	 M360.683,346.835c0.161-0.835,0.323-1.677,0.483-2.497c-3.976,2.145-7.714,4.105-11.254,5.913c3.253,0.756,6.501,1.545,9.657,2.355
	C359.944,350.65,360.315,348.726,360.683,346.835z M402.145,270.036c1.715,0.209,3.336-0.418,4.463-1.559
	c0.806-0.815,1.362-1.889,1.512-3.114l1.002-8.2l0.985-8.058c0.233-1.908-0.57-3.699-1.963-4.823l0.427-4.317
	c1.327-13.429,14.815-23.129,30.071-21.62c7.423,0.734,14.14,3.979,18.915,9.136c4.728,5.107,6.979,11.483,6.339,17.955
	l-0.788,7.977c-2.888-0.28-5.487,1.788-5.841,4.683l-0.76,6.214l-1.228,10.043c-0.108,0.884,0.009,1.742,0.301,2.522
	c0.679,1.815,2.316,3.2,4.372,3.452c2.94,0.359,5.615-1.733,5.975-4.673l1.987-16.257c0.23-1.884-0.55-3.655-1.91-4.782l0.436-4.406
	l0.442-4.478c0.297-2.998,0.04-5.972-0.719-8.835c-0.77-2.905-2.062-5.693-3.852-8.271c-0.764-1.101-1.612-2.165-2.554-3.181
	c-5.273-5.696-12.668-9.277-20.821-10.083c-14.665-1.451-27.887,6.588-32.087,18.605c-0.635,1.817-1.069,3.724-1.266,5.705
	l-0.341,3.447c-2.864-0.248-5.433,1.811-5.784,4.687l-1.987,16.257C397.113,267.002,399.206,269.677,402.145,270.036z"></path>
<path id="color_x5F_1" fill="#262727" d="M406.85,233.967c-0.417-0.736-0.933-1.651-2.106-3.498
	c-7.459-11.729,30.588-38.056,52.104-16.882c6.247,6.146,6.288,11.74,5.464,15.039c-0.764-1.101-1.612-2.165-2.554-3.181
	c-5.273-5.696-12.668-9.277-20.821-10.083C424.272,213.91,411.051,221.949,406.85,233.967z M466.883,245.732l-0.442,4.478
	c2.009-3.438,3.408-8.372-0.276-13.313C466.923,239.76,467.179,242.734,466.883,245.732z M463.108,253.413l0.788-7.977
	c0.641-6.471-1.611-12.848-6.339-17.955c-4.775-5.157-11.492-8.402-18.915-9.136c-15.256-1.509-28.744,8.191-30.071,21.62
	l-0.427,4.317c1.393,1.124,2.196,2.916,1.963,4.823l-0.985,8.058l0.862,2.957l1.716-11.371l1.167-7.741
	c1.15,0.27,2.317,0.51,3.52,0.69c11.682,1.763,22.611-1.193,29.526-7.088l1.912,0.756l0.013-0.015v-0.005
	c2.818,3.028,6.425,5.652,10.623,7.672l-0.002,0.013l-1.875,12.27l-1.768,11.573l1.691-2.565l0.76-6.214
	C457.621,255.201,460.22,253.133,463.108,253.413z M453.613,347.997h-17.735h-23.043c-0.036,0.502-0.062,1.007-0.062,1.518v0.699
	h-0.941c-2.818,0-5.408,0.97-7.476,2.582c1.132,0.768,2.145,1.696,3.009,2.752c1.286-0.841,2.819-1.334,4.467-1.334h0.941v6.293
	c0,3.675,0.982,7.114,2.679,10.095h-3.62c-0.872,0-1.712-0.14-2.501-0.394c-0.562,1.26-1.301,2.42-2.188,3.453
	c1.444,0.604,3.028,0.94,4.689,0.94h5.479c0.306,0,0.609-0.014,0.912-0.037l0.162-0.013c3.728,3.937,8.989,6.405,14.839,6.405
	c4.919,0,9.431-1.739,12.958-4.633c4.573-3.751,7.492-9.442,7.492-15.817v-10.992C453.675,349.004,453.65,348.499,453.613,347.997z
	 M420.34,324.539c0,2.435,2.265,3.507,4.084,4.368c1.466,0.692,2.502,1.232,2.502,1.867c0,0.636-1.037,1.176-2.502,1.869
	c-1.819,0.862-4.084,1.935-4.084,4.369c0,2.436,2.265,3.508,4.084,4.369c1.465,0.694,2.502,1.234,2.502,1.87
	c0,0.764,0.619,1.383,1.383,1.383s1.383-0.619,1.383-1.383c0-2.436-2.265-3.508-4.084-4.37c-1.465-0.693-2.502-1.233-2.502-1.869
	s1.037-1.176,2.502-1.869c1.819-0.862,4.084-1.935,4.084-4.369c0-2.434-2.265-3.506-4.084-4.367
	c-1.287-0.609-2.243-1.101-2.456-1.642c-0.94-0.148-1.863-0.354-2.765-0.621C420.372,324.276,420.34,324.397,420.34,324.539z
	 M425.607,322.671c1.819-0.861,4.084-1.934,4.084-4.368c0-0.764-0.619-1.383-1.383-1.383s-1.383,0.619-1.383,1.383
	c0,0.635-1.036,1.175-2.502,1.868c-1.714,0.812-3.799,1.825-4.037,3.974c0.901,0.268,1.824,0.473,2.765,0.621
	c-0.029-0.074-0.046-0.149-0.046-0.227C423.105,323.905,424.142,323.364,425.607,322.671z M437.8,337.012
	c0,0.728,0.218,1.322,0.55,1.838c0.467-1.725,0.922-3.404,1.361-5.026C438.643,334.556,437.8,335.53,437.8,337.012z M437.8,324.539
	c0,2.11,1.701,3.195,3.339,4.009c0.057-0.213,0.116-0.431,0.173-0.641c0.193-0.716,0.381-1.41,0.565-2.094
	c-0.801-0.435-1.312-0.832-1.312-1.274c0-0.575,0.857-1.074,2.108-1.68c0.346-1.283,0.668-2.486,0.972-3.621
	c-0.439,0.294-1.049,0.595-1.762,0.933C440.064,321.032,437.8,322.104,437.8,324.539z M441.138,328.548
	c0.252,0.125,0.502,0.244,0.745,0.359c1.465,0.692,2.502,1.232,2.502,1.867c0,0.636-1.037,1.176-2.502,1.869
	c-0.711,0.337-1.487,0.71-2.173,1.181c-0.439,1.622-0.895,3.302-1.361,5.026c0.779,1.208,2.259,1.928,3.534,2.531
	c1.465,0.694,2.502,1.234,2.502,1.87c0,0.764,0.619,1.383,1.383,1.383s1.383-0.619,1.383-1.383c0-2.436-2.265-3.508-4.084-4.37
	c-1.465-0.693-2.502-1.233-2.502-1.869s1.037-1.176,2.502-1.869c1.819-0.862,4.084-1.935,4.084-4.369
	c0-2.434-2.265-3.506-4.084-4.367c-0.444-0.21-0.842-0.405-1.19-0.594c-0.185,0.684-0.372,1.378-0.565,2.094
	C441.255,328.117,441.195,328.335,441.138,328.548z M443.067,322.671c1.819-0.861,4.084-1.934,4.084-4.368
	c0-0.764-0.619-1.383-1.383-1.383s-1.383,0.619-1.383,1.383c0,0.325-0.276,0.627-0.74,0.936c-0.304,1.135-0.626,2.338-0.972,3.621
	C442.802,322.798,442.93,322.735,443.067,322.671z M341.074,431.586v12.691h-7.411H298.55h-21.173H143.731v-91.934v-16.059H298.55
	v7.891v16.831c-0.381,3.771-1.038,6.913,0,8.721v53.622v8.236h35.113H341.074z M217.869,396.248l7.315-7.13l-10.109-1.47
	l-4.521-9.16l-4.521,9.16l-10.109,1.47l7.315,7.13l-1.727,10.068l9.042-4.754l9.042,4.754L217.869,396.248z M298.55,364.824v-3.817
	c-0.381,3.771-1.038,6.913,0,8.721v-1.51V364.824z M284,222.21c1.104,0,2-0.896,2-2v-17.391c0-1.104-0.896-2-2-2s-2,0.896-2,2
	v17.391C282,221.314,282.895,222.21,284,222.21z M284,285.245c1.104,0,2-0.896,2-2v-17.391c0-1.104-0.896-2-2-2s-2,0.896-2,2v17.391
	C282,284.349,282.895,285.245,284,285.245z M243.787,245.032h17.39c1.104,0,2-0.896,2-2s-0.896-2-2-2h-17.39c-1.104,0-2,0.896-2,2
	S242.682,245.032,243.787,245.032z M304.824,243.032c0,1.104,0.896,2,2,2h17.389c1.104,0,2-0.896,2-2s-0.896-2-2-2h-17.389
	C305.719,241.032,304.824,241.927,304.824,243.032z M266.447,228.307c0.391,0.391,0.902,0.586,1.414,0.586s1.024-0.195,1.414-0.586
	c0.781-0.781,0.781-2.047,0-2.828l-12.297-12.296c-0.781-0.781-2.048-0.781-2.828,0c-0.781,0.781-0.781,2.047,0,2.828
	L266.447,228.307z M311.021,272.881c0.391,0.391,0.902,0.586,1.414,0.586s1.023-0.195,1.414-0.586c0.781-0.781,0.781-2.047,0-2.828
	l-12.297-12.297c-0.781-0.781-2.047-0.781-2.828,0c-0.781,0.781-0.781,2.047,0,2.828L311.021,272.881z M266.447,257.757
	l-12.297,12.296c-0.781,0.781-0.781,2.047,0,2.828c0.39,0.391,0.902,0.586,1.414,0.586s1.023-0.195,1.414-0.586l12.297-12.296
	c0.781-0.781,0.781-2.047,0-2.828C268.495,256.975,267.228,256.975,266.447,257.757z M300.138,228.893
	c0.512,0,1.023-0.195,1.414-0.586l12.297-12.297c0.781-0.781,0.781-2.047,0-2.828c-0.781-0.781-2.047-0.781-2.828,0l-12.297,12.297
	c-0.781,0.781-0.781,2.047,0,2.828C299.115,228.698,299.627,228.893,300.138,228.893z"></path>
</svg>